<svg xmlns="http://www.w3.org/2000/svg" viewBox="0 0 100 100">
  <ellipse cx="50" cy="70" rx="30" ry="15" fill="#3d5a3d"/>
  <ellipse cx="50" cy="50" rx="25" ry="20" fill="#4a7c4a"/>
  <ellipse cx="65" cy="35" rx="18" ry="14" fill="#4a7c4a"/>
  <circle cx="72" cy="32" r="4" fill="white"/>
  <circle cx="73" cy="32" r="2" fill="#1a2e1a"/>
  <polygon points="80,38 90,35 80,42" fill="#4a7c4a"/>
  <rect x="35" y="65" width="6" height="15" rx="2" fill="#3d5a3d"/>
  <rect x="55" y="65" width="6" height="15" rx="2" fill="#3d5a3d"/>
  <polygon points="25,50 20,45 25,55" fill="#ff6b35"/>
  <polygon points="30,45 25,38 32,48" fill="#ff6b35"/>
  <polygon points="35,42 32,34 38,44" fill="#ff6b35"/>
  <ellipse cx="30" cy="55" rx="8" ry="4" fill="#4a7c4a"/>
  <path d="M 78 40 Q 85 50 78 55" stroke="#4a7c4a" stroke-width="4" fill="none" stroke-linecap="round"/>
  <text x="50" y="95" text-anchor="middle" fill="#f7b32b" font-size="10" font-weight="bold">RAWR</text>
</svg>
